<svg xmlns="http://www.w3.org/2000/svg" viewBox="0 0 1200 675" width="1200" height="675" fill="none" role="img" aria-label="Intelligence artificielle">
  <defs>
    <linearGradient id="bg3" x1="0" y1="0" x2="1" y2="1">
      <stop offset="0" stop-color="#6366f1"/>
      <stop offset="0.45" stop-color="#3b82f6"/>
      <stop offset="1" stop-color="#06b6d4"/>
    </linearGradient>
    <filter id="soft3" x="-50%" y="-50%" width="200%" height="200%"><feGaussianBlur stdDeviation="55"/></filter>
  </defs>
  <rect width="1200" height="675" fill="url(#bg3)"/>
  <circle cx="950" cy="140" r="230" fill="#ffffff" opacity="0.10" filter="url(#soft3)"/>
  <circle cx="200" cy="600" r="200" fill="#0b1220" opacity="0.12" filter="url(#soft3)"/>
  <g stroke="#ffffff" stroke-opacity="0.08" stroke-width="1.5">
    <path d="M0 168.75 H1200 M0 337.5 H1200 M0 506.25 H1200 M200 0 V675 M400 0 V675 M600 0 V675 M800 0 V675 M1000 0 V675"/>
  </g>
  <!-- Puce centrale -->
  <g transform="translate(600 337)">
    <!-- Pattes -->
    <g stroke="#ffffff" stroke-width="7" stroke-linecap="round" opacity="0.85">
      <path d="M-40 -120 V-160 M0 -120 V-165 M40 -120 V-160"/>
      <path d="M-40 120 V160 M0 120 V165 M40 120 V160"/>
      <path d="M-120 -40 H-160 M-120 0 H-165 M-120 40 H-160"/>
      <path d="M120 -40 H160 M120 0 H165 M120 40 H160"/>
    </g>
    <rect x="-120" y="-120" width="240" height="240" rx="34" fill="#ffffff"/>
    <rect x="-72" y="-72" width="144" height="144" rx="20" fill="none" stroke="#3b82f6" stroke-width="6"/>
    <!-- Reseau de neurones -->
    <g stroke="#06b6d4" stroke-width="4">
      <path d="M-40 -30 L20 -40 M-40 -30 L10 30 M20 -40 L40 20 M10 30 L40 20 M-40 -30 L-20 40 M-20 40 L10 30"/>
    </g>
    <g fill="#4f46e5">
      <circle cx="-40" cy="-30" r="11"/><circle cx="20" cy="-40" r="11"/>
      <circle cx="40" cy="20" r="11"/><circle cx="10" cy="30" r="11"/>
      <circle cx="-20" cy="40" r="11"/>
    </g>
  </g>
  <!-- Etincelles -->
  <g fill="#ffffff" opacity="0.9">
    <path d="M300 220 l10 26 26 10 -26 10 -10 26 -10 -26 -26 -10 26 -10 z"/>
    <path d="M905 470 l7 18 18 7 -18 7 -7 18 -7 -18 -18 -7 18 -7 z" opacity="0.75"/>
  </g>
</svg>
